<svg width="28" height="35" viewBox="0 0 28 35" fill="none" xmlns="http://www.w3.org/2000/svg">
<path d="M18.576 16.2198C18.576 17.2613 17.856 18.115 16.944 18.115C16.048 18.115 15.312 17.2613 15.312 16.2198C15.312 15.1783 16.032 14.3247 16.944 14.3247C17.856 14.3247 18.576 15.1783 18.576 16.2198ZM11.104 14.3247C10.192 14.3247 9.472 15.1783 9.472 16.2198C9.472 17.2613 10.208 18.115 11.104 18.115C12.016 18.115 12.736 17.2613 12.736 16.2198C12.752 15.1783 12.016 14.3247 11.104 14.3247ZM28 3.51714V34.147C23.9691 30.3459 25.2583 31.6041 20.576 26.959L21.424 30.1176H3.28C1.472 30.1176 0 28.5469 0 26.6005V3.51714C0 1.57076 1.472 0 3.28 0H24.72C26.528 0 28 1.57076 28 3.51714ZM23.44 19.7028C23.44 14.2051 21.136 9.74896 21.136 9.74896C18.832 7.90502 16.64 7.95624 16.64 7.95624L16.416 8.22942C19.136 9.11724 20.4 10.3978 20.4 10.3978C16.5993 8.17493 12.1348 8.17453 8.448 9.90262C7.856 10.1929 7.504 10.3978 7.504 10.3978C7.504 10.3978 8.832 9.04895 11.712 8.16113L11.552 7.95624C11.552 7.95624 9.36 7.90502 7.056 9.74896C7.056 9.74896 4.752 14.2051 4.752 19.7028C4.752 19.7028 6.096 22.1785 9.632 22.298C9.632 22.298 10.224 21.5297 10.704 20.8809C8.672 20.2321 7.904 18.8662 7.904 18.8662C8.13937 19.042 8.5275 19.2699 8.56 19.293C11.2606 20.9069 15.0968 21.4356 18.544 19.8906C19.104 19.6687 19.728 19.3443 20.384 18.8833C20.384 18.8833 19.584 20.2833 17.488 20.915C17.968 21.5638 18.544 22.298 18.544 22.298C22.08 22.1785 23.44 19.7028 23.44 19.7028Z" fill="#4C5FAB"/>
</svg>
