<svg width="28" height="30" viewBox="0 0 28 30" fill="none" xmlns="http://www.w3.org/2000/svg">
<path d="M25 0H3C2.20435 0 1.44129 0.33728 0.87868 0.937642C0.31607 1.538 0 2.35227 0 3.20131L0 26.6776C0 27.5266 0.31607 28.3409 0.87868 28.9413C1.44129 29.5416 2.20435 29.8789 3 29.8789H11.5781V19.7207H7.64062V14.9395H11.5781V11.2953C11.5781 7.15026 13.8906 4.86066 17.4325 4.86066C19.1287 4.86066 20.9025 5.18346 20.9025 5.18346V9.25179H18.9481C17.0225 9.25179 16.4219 10.527 16.4219 11.8348V14.9395H20.7206L20.0331 19.7207H16.4219V29.8789H25C25.7956 29.8789 26.5587 29.5416 27.1213 28.9413C27.6839 28.3409 28 27.5266 28 26.6776V3.20131C28 2.35227 27.6839 1.538 27.1213 0.937642C26.5587 0.33728 25.7956 0 25 0Z" fill="#4C5FAB"/>
</svg>
