<svg width="15" height="39" viewBox="0 0 15 39" fill="none" xmlns="http://www.w3.org/2000/svg">
<path fill-rule="evenodd" clip-rule="evenodd" d="M8.51239 24.6602V37.4323C8.51239 38.1104 8.11566 38.435 7.62581 38.1487L0.898028 34.1872C0.353325 33.7927 0.0216555 33.138 0.00634766 32.4325V19.9521C0.104573 20.0371 0.209176 20.111 0.318882 20.1768L8.51239 24.6602Z" fill="#425CC7"/>
<mask id="mask0" mask-type="alpha" maskUnits="userSpaceOnUse" x="0" y="0" width="15" height="19">
<path d="M0 0H14.9999V18.6348H0V0Z" fill="white"/>
</mask>
<g mask="url(#mask0)">
<path fill-rule="evenodd" clip-rule="evenodd" d="M0.752195 18.5566L14.2588 11.1199C14.7091 10.8144 14.9885 10.2857 14.9999 9.71309V0.673677C14.9999 0.113422 14.6657 -0.144103 14.2588 0.0791766L1.81226 6.93374C0.527681 7.67344 -0.0667723 8.02137 0.00593977 9.58433V17.9621C0.00593977 18.495 0.345263 18.7813 0.752195 18.5566Z" fill="#005CB9"/>
</g>
<path fill-rule="evenodd" clip-rule="evenodd" d="M0.752115 8.21203L14.2587 15.6488C14.7103 15.957 14.9884 16.4871 14.9999 17.0611V26.0951C14.9999 26.6553 14.6656 26.9184 14.2587 26.6951L0.752115 19.2569C0.299259 18.9515 0.0186159 18.4213 0.00585938 17.846V8.81064C0.00585938 8.25723 0.345183 7.98738 0.752115 8.21203Z" fill="#3CB4E5"/>
<path fill-rule="evenodd" clip-rule="evenodd" d="M0.752115 18.5564L10.146 13.384L0.752115 8.21168C0.593935 8.09936 0.388555 8.09936 0.230374 8.21168C0.0938793 8.48016 0.0173402 8.77878 0.00585938 9.08561V17.8441C0.010962 18.0372 0.0479559 18.2262 0.115565 18.4057C0.239304 18.6331 0.511017 18.7098 0.722775 18.5769C0.731705 18.57 0.74191 18.5632 0.752115 18.5564Z" fill="#00A0DF"/>
</svg>
