<svg width="95" height="46" viewBox="0 0 95 46" fill="none" xmlns="http://www.w3.org/2000/svg">
<g clip-path="url(#clip0)">
<path fill-rule="evenodd" clip-rule="evenodd" d="M76.8598 16.5927C77.9457 16.224 79.0893 16.0471 80.2361 16.07H83.7526C84.8978 16.0454 86.0398 16.2224 87.124 16.5927C88.0468 16.9074 88.8658 17.4612 89.4985 18.197C90.1494 19.0015 90.6092 19.9388 90.8431 20.945C91.1562 22.2215 91.3045 23.534 91.2815 24.8482C91.3095 26.1608 91.1678 27.4733 90.8596 28.7498C90.6207 29.7543 90.1544 30.6916 89.4952 31.488C88.2758 32.8874 86.3693 33.5871 83.7707 33.5904H80.2559C79.1024 33.615 77.9539 33.4429 76.8598 33.0824C75.9386 32.7743 75.1164 32.2303 74.4737 31.5077C73.8261 30.7129 73.368 29.7805 73.1373 28.7842C72.8243 27.5094 72.676 26.1985 72.699 24.8876C72.699 21.8298 73.3005 19.5996 74.505 18.1937C75.1411 17.4612 75.9601 16.909 76.8795 16.5927H76.8598ZM92.1037 15.4817C90.1873 13.4433 87.4042 12.4257 83.7526 12.4257H80.2361C78.5883 12.3913 76.9454 12.6502 75.3883 13.1893C74.0552 13.6678 72.8556 14.4527 71.885 15.4817C69.9604 17.5186 68.9997 20.6549 68.9997 24.8876C68.9997 29.1202 69.9604 32.2287 71.885 34.2163C72.8572 35.2339 74.0585 36.009 75.3883 36.4777C76.9471 37.0135 78.5883 37.2724 80.2361 37.2429H83.7526C85.4004 37.2724 87.0416 37.0135 88.6005 36.4777C89.9303 36.009 91.1315 35.2339 92.1037 34.2163C93.1105 33.1266 93.8504 31.819 94.2591 30.3967C94.7781 28.6056 95.0237 26.7474 94.9891 24.8826C95.0253 23.0097 94.7831 21.1383 94.2673 19.3358C93.8537 17.9037 93.1171 16.5845 92.112 15.4817H92.1037ZM59.2331 37.238H62.906V12.406H59.2331V37.238ZM53.0439 16.07V12.4208H42.7631C41.3295 12.388 39.8976 12.6026 38.5381 13.0582C37.9894 13.2597 37.4621 13.5154 36.9661 13.8234C36.0763 14.3707 35.3348 15.1245 34.8042 16.0192C34.5389 16.4666 34.3263 16.9418 34.1697 17.4366C33.827 18.5509 33.6589 19.7111 33.6738 20.8762V37.238H37.3434V27.0915H52.8906V23.6717H37.3352V20.8221C37.3352 20.5075 37.3599 20.1928 37.4077 19.8815C37.4506 19.5849 37.5181 19.2899 37.6071 19.0032C37.7966 18.4215 38.1311 17.8971 38.576 17.476C38.8182 17.2449 39.0868 17.0466 39.3785 16.8828C39.6982 16.7042 40.0327 16.5583 40.382 16.4485C41.2521 16.1782 42.16 16.0487 43.0713 16.0651L53.0439 16.07Z" fill="white"/>
<path fill-rule="evenodd" clip-rule="evenodd" d="M10.996 29.6186V44.8973C10.996 45.7084 10.4835 46.0968 9.85072 45.7543L1.16013 41.0154C0.456507 40.5434 0.0280746 39.7602 0.00830078 38.9163V23.9866C0.135183 24.0882 0.270304 24.1767 0.412016 24.2553L10.996 29.6186Z" fill="#425CC7"/>
<mask id="mask0" mask-type="alpha" maskUnits="userSpaceOnUse" x="0" y="0" width="20" height="23">
<path d="M0 0.118408H19.3761V22.4099H0V0.118408Z" fill="white"/>
</mask>
<g mask="url(#mask0)">
<path fill-rule="evenodd" clip-rule="evenodd" d="M0.971646 22.3171L18.4187 13.4209C19.0004 13.0555 19.3613 12.423 19.3761 11.738V0.924608C19.3761 0.254403 18.9444 -0.053662 18.4187 0.213437L2.34098 8.41321C0.68163 9.29808 -0.0862529 9.71429 0.00767268 11.584V21.6059C0.00767268 22.2434 0.445992 22.5858 0.971646 22.3171Z" fill="#005CB9"/>
</g>
<path fill-rule="evenodd" clip-rule="evenodd" d="M0.971786 9.94205L18.4189 18.8382C19.0022 19.2069 19.3614 19.8411 19.3763 20.5277V31.3345C19.3763 32.0047 18.9445 32.3194 18.4189 32.0523L0.971786 23.1544C0.386811 22.789 0.0242907 22.1549 0.0078125 21.4666V10.6581C0.0078125 9.99613 0.446132 9.67331 0.971786 9.94205Z" fill="#3CB4E5"/>
<path fill-rule="evenodd" clip-rule="evenodd" d="M0.971786 22.3176L13.1063 16.1301L0.971786 9.94257C0.767457 9.8082 0.502158 9.8082 0.297828 9.94257C0.121512 10.2637 0.0226429 10.621 0.0078125 10.988V21.4655C0.0144038 21.6966 0.0621905 21.9227 0.149525 22.1374C0.309363 22.4094 0.660348 22.5011 0.933886 22.3422C0.945421 22.334 0.958603 22.3258 0.971786 22.3176Z" fill="#00A0DF"/>
</g>
<defs>
<clipPath id="clip0">
<rect width="95" height="46" fill="white"/>
</clipPath>
</defs>
</svg>
