<svg width="28" height="30" viewBox="0 0 28 30" fill="none" xmlns="http://www.w3.org/2000/svg">
<path d="M17.7 20.9086C17.8688 21.0886 17.8688 21.3621 17.7 21.5222C16.1688 23.1562 11.8375 23.1628 10.3 21.5222C10.1313 21.3621 10.1313 21.0886 10.3 20.9086C10.45 20.7485 10.7063 20.7485 10.8562 20.9086C12.025 22.1891 15.9188 22.2158 17.1375 20.9086C17.2875 20.7552 17.55 20.7552 17.7 20.9086ZM11.9937 17.3204C11.9937 16.3267 11.25 15.533 10.3375 15.533C9.40625 15.533 8.6625 16.3267 8.6625 17.3204C8.6625 18.2942 9.40625 19.0878 10.3375 19.0878C11.25 19.0878 11.9937 18.2942 11.9937 17.3204ZM17.6625 15.533C16.75 15.533 16.0063 16.3267 16.0063 17.3204C16.0063 18.2942 16.75 19.0878 17.6625 19.0878C18.5938 19.0878 19.3375 18.2942 19.3375 17.3204C19.3375 16.3267 18.5938 15.533 17.6625 15.533ZM28 3.20131V26.6776C28 28.445 26.6562 29.8789 25 29.8789H3C1.34375 29.8789 0 28.445 0 26.6776V3.20131C0 1.43392 1.34375 0 3 0H25C26.6562 0 28 1.43392 28 3.20131ZM21.7687 12.5785C21.1375 12.5785 20.5813 12.8586 20.1688 13.2921C18.6625 12.1783 16.6375 11.4647 14.3875 11.3847L15.5562 5.76903L19.275 6.66273C19.275 7.63646 20.0187 8.43012 20.9312 8.43012C21.8625 8.43012 22.6063 7.61645 22.6063 6.64272C22.6063 5.66899 21.8625 4.85532 20.9312 4.85532C20.2812 4.85532 19.725 5.26882 19.4438 5.84906L15.3375 4.87533C15.1312 4.81531 14.9312 4.97537 14.875 5.19546L13.5938 11.3847C11.3625 11.4847 9.35625 12.1983 7.85 13.3121C7.44375 12.8586 6.8625 12.5785 6.23125 12.5785C3.8875 12.5785 3.11875 15.9399 5.2625 17.0803C5.1875 17.4405 5.15 17.814 5.15 18.1941C5.15 21.9623 9.13125 25.0169 14.0188 25.0169C18.925 25.0169 22.9062 21.9623 22.9062 18.1941C22.9062 17.814 22.8687 17.4205 22.775 17.0603C24.875 15.9132 24.1 12.5785 21.7687 12.5785Z" fill="#4C5FAB"/>
</svg>
