<svg width="100" height="15" viewBox="0 0 100 15" fill="none" xmlns="http://www.w3.org/2000/svg">
<g clip-path="url(#clip0)">
<path d="M7.20268 0.495144L5.38879 4.17732L1.33046 4.7697C0.602682 4.87538 0.311016 5.77367 0.838794 6.28818L3.7749 9.15271L3.08046 13.1992C2.95546 13.9306 3.7249 14.4785 4.36935 14.1364L7.99991 12.2258L11.6305 14.1364C12.2749 14.4757 13.0444 13.9306 12.9194 13.1992L12.2249 9.15271L15.161 6.28818C15.6888 5.77367 15.3971 4.87538 14.6693 4.7697L10.611 4.17732L8.79713 0.495144C8.47213 -0.161195 7.53046 -0.169539 7.20268 0.495144Z" fill="#F8BF00"/>
</g>
<g clip-path="url(#clip1)">
<path d="M28.2027 0.495144L26.3888 4.17732L22.3305 4.7697C21.6027 4.87538 21.311 5.77367 21.8388 6.28818L24.7749 9.15271L24.0805 13.1992C23.9555 13.9306 24.7249 14.4785 25.3693 14.1364L28.9999 12.2258L32.6305 14.1364C33.2749 14.4757 34.0444 13.9306 33.9194 13.1992L33.2249 9.15271L36.161 6.28818C36.6888 5.77367 36.3971 4.87538 35.6693 4.7697L31.611 4.17732L29.7971 0.495144C29.4721 -0.161195 28.5305 -0.169539 28.2027 0.495144Z" fill="#F8BF00"/>
</g>
<g clip-path="url(#clip2)">
<path d="M49.2027 0.495144L47.3888 4.17732L43.3305 4.7697C42.6027 4.87538 42.311 5.77367 42.8388 6.28818L45.7749 9.15271L45.0805 13.1992C44.9555 13.9306 45.7249 14.4785 46.3693 14.1364L49.9999 12.2258L53.6305 14.1364C54.2749 14.4757 55.0444 13.9306 54.9194 13.1992L54.2249 9.15271L57.161 6.28818C57.6888 5.77367 57.3971 4.87538 56.6693 4.7697L52.611 4.17732L50.7971 0.495144C50.4721 -0.161195 49.5305 -0.169539 49.2027 0.495144Z" fill="#F8BF00"/>
</g>
<g clip-path="url(#clip3)">
<path d="M70.2027 0.495144L68.3888 4.17732L64.3305 4.7697C63.6027 4.87538 63.311 5.77367 63.8388 6.28818L66.7749 9.15271L66.0805 13.1992C65.9555 13.9306 66.7249 14.4785 67.3693 14.1364L70.9999 12.2258L74.6305 14.1364C75.2749 14.4757 76.0444 13.9306 75.9194 13.1992L75.2249 9.15271L78.161 6.28818C78.6888 5.77367 78.3971 4.87538 77.6693 4.7697L73.611 4.17732L71.7971 0.495144C71.4721 -0.161195 70.5305 -0.169539 70.2027 0.495144Z" fill="#F8BF00"/>
</g>
<g clip-path="url(#clip4)">
<path d="M91.2027 0.495144L89.3888 4.17732L85.3305 4.7697C84.6027 4.87538 84.311 5.77367 84.8388 6.28818L87.7749 9.15271L87.0805 13.1992C86.9555 13.9306 87.7249 14.4785 88.3693 14.1364L91.9999 12.2258L95.6305 14.1364C96.2749 14.4757 97.0444 13.9306 96.9194 13.1992L96.2249 9.15271L99.161 6.28818C99.6888 5.77367 99.3971 4.87538 98.6693 4.7697L94.611 4.17732L92.7971 0.495144C92.4721 -0.161195 91.5305 -0.169539 91.2027 0.495144Z" fill="#F8BF00"/>
</g>
<defs>
<clipPath id="clip0">
<rect width="16" height="14.2392" fill="white"/>
</clipPath>
<clipPath id="clip1">
<rect x="21" width="16" height="14.2392" fill="white"/>
</clipPath>
<clipPath id="clip2">
<rect x="42" width="16" height="14.2392" fill="white"/>
</clipPath>
<clipPath id="clip3">
<rect x="63" width="16" height="14.2392" fill="white"/>
</clipPath>
<clipPath id="clip4">
<rect x="84" width="16" height="14.2392" fill="white"/>
</clipPath>
</defs>
</svg>
