<svg width="28" height="30" viewBox="0 0 28 30" fill="none" xmlns="http://www.w3.org/2000/svg">
<path d="M25 0H3C1.34375 0 0 1.43392 0 3.20131V26.6776C0 28.445 1.34375 29.8789 3 29.8789H25C26.6562 29.8789 28 28.445 28 26.6776V3.20131C28 1.43392 26.6562 0 25 0ZM21.9438 10.591C21.9563 10.7777 21.9562 10.9712 21.9562 11.1579C21.9562 16.9403 17.8312 23.603 10.2937 23.603C7.96875 23.603 5.8125 22.8827 4 21.6422C4.33125 21.6822 4.65 21.6956 4.9875 21.6956C6.90625 21.6956 8.66875 21.0019 10.075 19.8281C8.275 19.7881 6.7625 18.5276 6.24375 16.7935C6.875 16.8936 7.44375 16.8936 8.09375 16.7135C6.21875 16.3067 4.8125 14.546 4.8125 12.4184V12.3651C5.35625 12.6919 5.99375 12.8919 6.6625 12.9186C6.10027 12.5196 5.63936 11.9782 5.32092 11.3427C5.00247 10.7073 4.83639 9.9977 4.8375 9.27713C4.8375 8.46347 5.0375 7.71649 5.39375 7.06956C7.4125 9.72398 10.4438 11.458 13.8438 11.6448C13.2625 8.67689 15.3438 6.26923 17.8438 6.26923C19.025 6.26923 20.0875 6.79612 20.8375 7.6498C21.7625 7.46306 22.65 7.09624 23.4375 6.59603C23.1313 7.60978 22.4875 8.46347 21.6375 9.00369C22.4625 8.91032 23.2625 8.66355 24 8.32341C23.4438 9.1971 22.7437 9.97075 21.9438 10.591Z" fill="#4C5FAB"/>
</svg>
